Coordinates
version=1
nRows=17
nColumns=40
inDegrees=yes

Units are S.I. units (second, meters, Newtons, ...)
Angles are in degrees.

endheader
time	pelvis_tilt	pelvis_list	pelvis_rotation	pelvis_tx	pelvis_ty	pelvis_tz	hip_flexion_r	hip_adduction_r	hip_rotation_r	knee_angle_r	knee_angle_r_beta	ankle_angle_r	subtalar_angle_r	mtp_angle_r	hip_flexion_l	hip_adduction_l	hip_rotation_l	knee_angle_l	knee_angle_l_beta	ankle_angle_l	subtalar_angle_l	mtp_angle_l	lumbar_extension	lumbar_bending	lumbar_rotation	arm_flex_r	arm_add_r	arm_rot_r	elbow_flex_r	pro_sup_r	wrist_flex_r	wrist_dev_r	arm_flex_l	arm_add_l	arm_rot_l	elbow_flex_l	pro_sup_l	wrist_flex_l	wrist_dev_l
     43.75000000	     -5.51449361	     -4.60597197	     -0.95705830	      0.90089557	      0.92156722	      0.56508034	     16.39261805	      6.51813108	     -5.57534851	     23.34354936	     23.34354936	     14.50087143	     -6.21807484	     -0.62489998	     14.98287630	    -13.08919776	      0.94090570	     44.72111059	     44.72111059	     12.35147725	    -17.08894327	      1.18192855	     -8.75554848	      3.51955082	     -1.64252803	     13.97487607	    -23.17895624	    -12.11786294	     75.19026796	     45.28254692	      0.00000000	      0.00000000	      3.78411972	     -9.70133219	      5.60319049	     26.81895615	     44.69276608	      0.00000000	      0.00000000
     43.77264286	     -5.06694135	     -4.88469465	     -0.56739317	      0.90020807	      0.91876456	      0.56816435	     16.55110802	      7.09767067	     -5.22101476	     25.00409773	     25.00409773	     15.38057151	     -7.84260627	     -0.45178427	     17.08817904	    -13.32124361	      2.53638760	     49.12139516	     49.12139516	     12.35211884	    -17.81417693	      3.64178560	     -8.95599072	      3.55381857	     -1.37126823	     15.55858938	    -23.17501723	    -12.20664135	     77.96519228	     45.21231835	      0.00000000	      0.00000000	      1.99711453	     -9.60025577	      5.88081275	     25.74242703	     44.68922900	      0.00000000	      0.00000000
     43.79528571	     -4.54984881	     -5.08175758	     -0.17388399	      0.89952240	      0.91594903	      0.57124271	     16.63540183	      7.63438986	     -4.77292425	     26.67977193	     26.67977193	     16.15962087	     -9.60195318	     -0.39722235	     18.94758539	    -13.46921565	      3.88263507	     52.94877106	     52.94877106	     12.24060725	    -18.33958462	      5.63505723	     -9.19090471	      3.52961725	     -1.41844641	     18.00162229	    -22.75513373	    -12.38115207	     80.36535052	     45.15694798	      0.00000000	      0.00000000	     -0.06646603	     -9.65762538	      6.27455629	     24.91626135	     44.61772608	      0.00000000	      0.00000000
     43.81792857	     -4.13690389	     -5.28847045	      0.32268245	      0.89862655	      0.91307515	      0.57403623	     16.77548899	      8.16853135	     -4.45917604	     28.23274763	     28.23274763	     17.15939092	    -11.11252057	      0.13550782	     20.93598490	    -13.45431572	      5.39051636	     56.39345803	     56.39345803	     13.26852004	    -18.53827066	     10.45466789	     -9.35012836	      3.53545910	     -1.32066001	     20.33091504	    -22.70110771	    -12.17380602	     82.59305808	     45.10473029	      0.00000000	      0.00000000	     -2.15325232	     -9.73406547	      7.23432526	     24.62450141	     44.46612306	      0.00000000	      0.00000000
     43.84057143	     -3.72443979	     -5.37646375	      0.87895483	      0.89756073	      0.91055151	      0.57647108	     16.85397946	      8.50063990	     -4.38872356	     29.64264380	     29.64264380	     18.04395602	    -12.27989194	      0.75112461	     22.69586297	    -13.42087516	      6.46615822	     58.87674757	     58.87674757	     13.88989072	    -18.74748642	     13.68684199	     -9.54164508	      3.41003513	     -1.22108121	     22.98355413	    -22.57311697	    -12.06658663	     84.25034607	     45.08362568	      0.00000000	      0.00000000	     -3.97696683	     -9.87180781	      8.70324814	     24.35611795	     44.25508183	      0.00000000	      0.00000000
     43.86321429	     -3.39013553	     -5.46255715	      1.52044829	      0.89629269	      0.90842811	      0.57856838	     16.85170898	      8.80099971	     -4.43926884	     30.67244162	     30.67244162	     18.58780867	    -13.39412509	      0.73918410	     24.31349727	    -13.49803957	      7.22752065	     60.28628989	     60.28628989	     13.79952911	    -19.00842175	     14.12520156	     -9.72531190	      3.28537369	     -0.96695206	     25.55291984	    -22.48087574	    -12.24005287	     85.89985639	     45.05086267	      0.00000000	      0.00000000	     -5.37274905	     -9.79830381	      9.03944379	     23.72060120	     44.18694146	      0.00000000	      0.00000000
     43.88585714	     -3.07667206	     -5.44597836	      2.27033786	      0.89490805	      0.90698126	      0.58014403	     16.68960691	      8.95847307	     -4.56263582	     31.34451052	     31.34451052	     19.10841288	    -14.38867823	      1.00362157	     25.81293840	    -13.46668076	      7.77973650	     60.82627396	     60.82627396	     14.17339448	    -19.13916601	     15.20799327	     -9.90751642	      3.13731277	     -0.83194927	     28.26897449	    -22.42504320	    -12.12444394	     87.45499367	     45.01453136	      0.00000000	      0.00000000	     -6.56003813	     -9.73792905	      9.52289607	     23.24338091	     44.09755028	      0.00000000	      0.00000000
     43.90850000	     -2.83914949	     -5.35027290	      3.08443401	      0.89328161	      0.90627695	      0.58115736	     16.41595065	      8.91292727	     -4.95184134	     31.62701947	     31.62701947	     19.42211960	    -14.90032179	      1.06243715	     27.18686784	    -13.38654477	      8.03997303	     60.37096649	     60.37096649	     14.44443879	    -19.23345097	     15.47556752	    -10.06545252	      2.91313380	     -0.15368418	     30.69855180	    -22.95081126	    -12.29713133	     88.33756361	     45.00415394	      0.00000000	      0.00000000	     -7.18322262	     -9.66325771	      9.67331399	     22.99829012	     44.06423212	      0.00000000	      0.00000000
     43.93114286	     -2.77783060	     -5.19017110	      4.00961382	      0.89126971	      0.90610794	      0.58161383	     16.28021471	      8.75034188	     -5.38958093	     31.77719739	     31.77719739	     19.94378989	    -15.29871131	      2.20600300	     28.61982849	    -13.07339751	      8.28891014	     59.13527045	     59.13527045	     15.44978470	    -19.25281788	     17.53508253	    -10.12057431	      2.69891420	     -0.52231971	     33.97509635	    -22.83602464	    -10.70031668	     88.93956937	     44.96962473	      0.00000000	      0.00000000	     -8.15577315	     -9.71196688	     11.18087097	     22.94297003	     43.82630511	      0.00000000	      0.00000000
     43.95378571	     -2.79467245	     -4.94242464	      4.99770787	      0.88912056	      0.90671719	      0.58161283	     15.97046269	      8.40247275	     -6.05391596	     31.43590261	     31.43590261	     20.04771980	    -15.44396332	      2.42311899	     29.76028020	    -12.67051337	      8.26384378	     56.81431325	     56.81431325	     15.46712057	    -19.24153507	     17.08508688	    -10.16001166	      2.38426318	     -0.23377108	     36.54328729	    -22.96003173	    -10.61768386	     89.87524451	     44.95826280	      0.00000000	      0.00000000	     -8.44512881	     -9.66737875	     11.74918081	     22.93182338	     43.75174897	      0.00000000	      0.00000000
     43.97642857	     -2.83792520	     -4.61666592	      6.01966633	      0.88679777	      0.90807854	      0.58113796	     15.51782530	      7.92613506	     -6.78616778	     30.79283388	     30.79283388	     20.02134204	    -15.45816521	      2.57672770	     30.57960854	    -12.06100989	      8.16092304	     53.66978454	     53.66978454	     15.22513097	    -19.14701898	     16.68904410	    -10.23376029	      2.02322922	      0.21240821	     39.09065617	    -23.35907012	    -10.42933169	     90.56905796	     44.94622747	      0.00000000	      0.00000000	     -8.34321142	     -9.55764935	     12.03818351	     22.95247923	     43.71979743	      0.00000000	      0.00000000
     43.99907143	     -3.06528924	     -4.36083736	      7.07468681	      0.88428345	      0.90968622	      0.58041584	     15.10593852	      7.48587981	     -7.63690765	     29.80179363	     29.80179363	     19.67464745	    -15.37430450	      2.35289923	     31.20785928	    -11.47065327	      7.99444782	     49.67491400	     49.67491400	     13.24453657	    -19.01423031	     12.43190130	    -10.12705952	      1.71982902	      0.27775588	     41.94660692	    -23.67030664	     -9.16310526	     90.39054671	     44.95651353	      0.00000000	      0.00000000	     -8.40473336	     -9.60237233	     13.31059257	     23.27870245	     43.60503498	      0.00000000	      0.00000000
     44.02171429	     -3.46969916	     -3.99741713	      8.03708005	      0.88167752	      0.91152160	      0.57944772	     14.80914701	      6.90717212	     -8.39007499	     28.74499857	     28.74499857	     19.43349946	    -15.17849201	      2.57065264	     31.79811773	    -10.52744542	      8.03338087	     45.59039975	     45.59039975	     12.43504798	    -18.49612062	     12.77632973	     -9.89573022	      1.28076184	      0.88371854	     44.24562518	    -23.95945150	     -9.10888957	     91.01219650	     44.94710204	      0.00000000	      0.00000000	     -7.96303412	     -9.44421941	     13.40100819	     23.47016301	     43.60675533	      0.00000000	      0.00000000
     44.04435714	     -3.60689747	     -3.71693209	      8.99615495	      0.87936248	      0.91392331	      0.57827199	     14.00700260	      6.38640623	     -9.50705196	     27.32237241	     27.32237241	     18.86798816	    -14.42613343	      1.62827121	     31.56284408	     -9.82492904	      7.90277206	     40.69747755	     40.69747755	      9.09111525	    -17.96916470	      7.38451744	     -9.94418190	      1.02791395	      0.91274588	     47.02311741	    -24.09942824	     -7.29266801	     90.73655519	     44.93979072	      0.00000000	      0.00000000	     -7.76164748	     -9.34990802	     14.16750960	     23.76658221	     43.59385043	      0.00000000	      0.00000000
     44.06700000	     -3.91639628	     -3.47600050	      9.83375333	      0.87702711	      0.91610740	      0.57716370	     13.41582751	      5.98622427	    -10.32067288	     25.95101380	     25.95101380	     18.52502998	    -13.92883176	      1.80900456	     31.61249717	     -9.08951794	      7.89419870	     36.52738137	     36.52738137	      7.81034498	    -16.16415725	      7.84829849	     -9.83322241	      0.71397595	      1.51350977	     49.09791877	    -24.18690092	     -7.12147279	     91.12293273	     44.93468007	      0.00000000	      0.00000000	     -7.20095897	     -9.19365185	     14.24739617	     24.06326626	     43.60577724	      0.00000000	      0.00000000
     44.08964286	     -4.19214081	     -3.30926646	     10.56810328	      0.87492273	      0.91815671	      0.57605696	     12.73322093	      5.68109707	    -11.16738690	     24.50541673	     24.50541673	     18.18397115	    -13.18257000	      1.86426818	     31.55634767	     -8.54949834	      7.71344383	     32.71931782	     32.71931782	      6.37617443	    -13.70570213	      8.09649531	     -9.72564602	      0.49051970	      2.06633056	     51.12327626	    -24.14992396	     -6.62844786	     91.33655023	     44.92455453	      0.00000000	      0.00000000	     -6.67119543	     -9.03187780	     14.34151947	     24.33951449	     43.61415335	      0.00000000	      0.00000000
     44.11228571	     -4.42916484	     -3.31661201	     11.24209838	      0.87298014	      0.91975231	      0.57494514	     12.02527772	      5.53367361	    -12.26410737	     23.04774099	     23.04774099	     17.60108725	    -12.12467675	      0.82661128	     31.48608926	     -8.30693945	      7.29192967	     29.35504240	     29.35504240	      4.27358858	    -10.89955128	      6.23604016	     -9.60368971	      0.49235749	      1.99461022	     53.77357159	    -23.71863190	     -4.53302393	     90.32916505	     44.92204333	      0.00000000	      0.00000000	     -6.54835802	     -8.90512297	     14.70902756	     24.90293701	     43.63038542	      0.00000000	      0.00000000
